<svg width="768" height="728" viewBox="0 0 768 728" fill="none" xmlns="http://www.w3.org/2000/svg">
<g clip-path="url(#clip0)">
<path d="M242.443 551.372C292.735 525.094 365.921 527.261 387.208 568.045C408.495 608.83 382.793 684.424 332.501 710.702C282.21 736.98 191.613 733.032 170.326 692.247C149.166 651.706 192.452 577.492 242.443 551.372Z" fill="#FDD0CD"/>
<path d="M383.367 330.774L382.683 330.385C383.17 329.212 383.562 330.432 383.902 329.358C383.169 328.578 384.876 327.648 384.485 327.063C384.485 327.063 384.826 326.623 385.168 326.818C384.728 326.476 385.411 326.231 385.362 325.841C385.264 325.695 385.117 325.792 384.971 325.89L385.263 325.06C385.555 324.864 385.8 324.913 385.849 325.303C386.433 324.277 388.089 321.688 389.648 318.952C391.206 316.216 392.862 313.627 393.446 312.601C393.056 312.65 392.91 313.382 392.178 313.237C392.177 312.602 392.812 312.601 392.518 312.163C393.348 312.454 393.347 311.185 394.47 311.281L394.176 310.842L394.566 310.793C395.442 308.302 394.712 310.06 396.076 308.301C396.807 307.177 396.512 306.104 397.098 305.712C396.951 305.81 396.561 305.86 396.756 305.518C397.098 305.712 396.95 304.541 397.536 304.784C397.731 304.442 398.413 303.563 397.534 303.515C397.924 303.466 398.558 302.83 398.559 303.465C398.852 303.269 399.046 302.927 399.095 302.683L398.656 302.977C399.24 301.951 400.021 301.852 400.069 300.973L399.532 301.12C399.873 300.681 400.116 300.094 400.849 300.24L400.606 300.826C401.288 299.946 401.629 299.507 401.921 298.676L401.628 298.872C401.773 298.14 402.699 296.674 403.624 295.208C404.55 293.742 405.573 292.423 405.572 291.788L404.84 291.643L405.131 290.812C404.985 290.91 405.866 292.227 405.621 292.179C405.914 291.983 406.694 291.25 407.474 290.516C408.352 289.929 409.278 289.098 410.4 288.56C412.4 287.434 414.254 287.041 414.694 287.382C415.134 287.723 414.793 288.163 414.793 288.163C415.232 287.869 414.89 287.675 415.28 287.625C415.378 287.771 415.33 288.016 415.183 288.113C415.33 288.016 415.428 288.162 415.476 287.918C415.28 287.625 415.377 287.137 415.328 286.746L415.816 286.843L415.719 287.332C415.719 287.332 416.157 286.404 416.743 286.647C417.232 286.744 417.672 287.085 418.16 287.182C418.648 287.279 419.186 287.766 419.772 288.009C419.626 288.107 419.333 288.303 419.089 288.254C419.187 288.401 419.431 288.449 419.529 288.595C419.479 288.205 420.163 288.595 419.968 288.302C420.651 288.057 420.944 288.496 421.384 288.837C421.824 289.178 422.166 289.373 422.752 289.616C423.045 289.42 425.824 286.927 429.042 284.775C432.017 282.574 435.334 280.568 435.675 280.128C435.968 280.567 436.31 280.761 436.262 281.006C436.31 280.761 435.821 280.03 435.381 279.689L434.942 279.982C434.063 279.3 435.039 279.494 434.16 278.812C434.354 278.47 435.234 279.152 435.869 279.786C435.234 279.152 434.989 278.469 434.354 278.47C433.963 277.885 434.793 278.176 434.206 277.298C433.864 277.104 433.522 276.909 433.18 276.714C432.838 276.519 432.496 276.325 432.203 275.886C431.469 275.106 430.786 274.716 430.199 274.473C429.857 274.278 429.515 274.083 429.271 274.035C428.929 273.84 428.587 273.645 428.147 273.304L428.392 273.353C428 272.767 426.535 272.477 425.558 271.648C425.9 271.843 426.047 272.38 425.363 271.99C424.142 271.113 423.019 271.017 421.993 270.433L420.821 270.581C420.089 270.435 419.356 270.29 418.234 270.194C417.745 270.097 417.111 270.098 416.378 269.952C415.744 269.953 415.109 269.954 414.328 270.053C413.694 270.054 412.913 270.153 412.132 270.251C411.351 270.35 410.668 270.595 409.887 270.694C409.204 270.939 408.423 271.038 407.74 271.283C407.057 271.528 406.374 271.773 405.691 272.018C400.275 274.369 396.57 277.693 395.059 278.916L395.205 278.818C393.986 279.845 392.719 281.116 391.305 282.485C389.989 284 388.527 285.613 387.211 287.128C384.531 290.402 382.339 293.773 381.073 296.314C380.342 296.803 379.757 297.829 379.123 298.464C379.562 298.171 379.758 298.463 379.563 298.805C378.102 301.053 379.759 299.098 378.395 301.492C377.861 302.908 375.863 305.938 373.964 309.113C372.065 312.289 370.214 315.221 369.483 316.344C369.437 317.858 368.121 319.373 367.878 320.593L367.78 320.447C367.245 321.864 363.107 329.289 362.669 330.852L362.816 330.754C362.525 332.219 361.987 331.732 361.257 332.855C361.989 333.001 361.845 334.368 361.65 334.71L361.552 334.564C361.407 335.296 361.311 337.054 360.825 338.226L360.483 338.031C360.387 339.154 359.559 340.766 359.17 341.45C358.391 342.818 356.587 344.871 356.297 346.97C356.297 346.97 356.005 347.166 355.468 347.313C355.175 347.509 354.639 347.656 354.639 347.656L354.59 347.9C354.59 347.9 357.375 349.849 360.551 351.748C363.727 353.647 367.585 355.302 369.391 354.518L369.732 354.713L369.976 354.127C370.463 353.589 370.17 353.15 370.512 353.345L370.074 354.273C370.463 353.589 370.464 354.224 370.513 354.614C370.708 354.272 370.854 354.174 371.147 353.979C371.049 353.832 371.001 354.076 370.757 354.028C370.707 353.638 370.706 353.003 371.047 352.563C371.437 351.879 371.634 352.806 372.023 352.122C374.214 348.116 376.308 344.599 378.011 340.496C378.157 340.398 378.109 340.642 378.207 340.789C378.595 339.47 379.18 338.444 379.52 337.37C379.813 337.174 380.057 337.222 380.203 337.125C380.252 336.88 383.221 330.872 383.367 330.774Z" fill="#C7ECD5"/>
<path d="M141.031 89.6235C195.207 131.104 230.857 210.893 198.307 253.405C165.757 295.917 71.6268 304.603 17.4511 263.123C-36.7246 221.643 -79.5022 122.263 -46.9525 79.7513C-14.5977 37.4942 87.1798 48.3915 141.031 89.6235Z" fill="#FEDC99"/>
<path d="M667.139 421.53C680.176 378.189 722.197 337.624 757.326 348.19C792.454 358.757 821.253 415.53 808.216 458.871C795.18 502.212 742.439 551.722 707.311 541.156C672.393 530.653 654.18 464.611 667.139 421.53Z" fill="#AECFDE"/>
<path d="M667.139 421.53C680.176 378.189 722.197 337.624 757.326 348.19C792.454 358.757 821.253 415.53 808.216 458.871C795.18 502.212 742.439 551.722 707.311 541.156C672.393 530.653 654.18 464.611 667.139 421.53Z" fill="url(#paint0_linear)" fill-opacity="0.3"/>
</g>
<defs>
<linearGradient id="paint0_linear" x1="765.632" y1="511.913" x2="686.888" y2="363.137" gradientUnits="userSpaceOnUse">
<stop stop-color="white"/>
<stop offset="1" stop-color="white" stop-opacity="0"/>
</linearGradient>
<clipPath id="clip0">
<rect width="768" height="728" fill="white"/>
</clipPath>
</defs>
</svg>
